<svg width="1083" height="777" viewBox="0 0 1083 777" fill="none" xmlns="http://www.w3.org/2000/svg">
<g clip-path="url(#clip0_4574_1352)">
<path d="M476.466 68.791L452.529 80.0682L415.044 98.1118L407.818 94.7286L444.852 76.685L468.788 65.0319L476.466 68.791ZM327.429 133.071H326.977L264.201 163.895L272.331 168.03V166.527L334.655 136.83L327.429 133.071ZM257.879 185.698L254.717 183.819L252.911 183.067V190.961L272.331 199.983V192.464L257.879 185.698Z" fill="#F7941D"/>
<path d="M234.394 205.997L272.331 224.417V226.296L112.003 149.235L112.455 148.107L353.172 32.328L425.432 66.9115L233.942 159.761V205.997H234.394Z" fill="#A4FB8F"/>
<path d="M401.496 104.502L347.3 130.44L340.074 127.057L394.27 101.119L401.496 104.502ZM990.868 449.209L980.932 444.322L915.447 475.898L892.414 486.8L825.573 519.128L802.54 530.029L733.441 563.485L734.796 564.237L739.764 571.379L814.282 535.668L904.156 492.438L991.771 450.337L990.868 449.209Z" fill="white"/>
<path d="M590.727 678.136C590.727 678.136 590.727 678.136 590.275 678.136C588.921 676.633 587.114 675.881 585.308 674.377C583.501 673.626 581.695 672.498 579.888 671.37C571.307 664.604 563.178 657.086 556.855 648.064C550.532 640.17 545.564 631.148 541.951 622.126C538.338 612.729 536.532 603.707 536.532 595.813C536.532 593.933 536.532 592.054 536.983 590.926C536.983 589.046 536.983 587.167 537.435 585.663C537.887 584.536 538.338 582.656 538.79 581.528C539.693 579.273 540.596 577.769 541.5 575.89L252.007 436.428C252.007 436.804 251.556 437.556 251.556 437.932C250.652 440.563 249.749 442.819 247.943 445.074C247.491 445.826 247.039 446.578 246.588 447.329C245.233 448.457 244.33 449.585 242.975 450.713C242.523 450.713 242.523 451.089 242.523 451.089C242.071 451.464 241.62 451.464 241.168 451.84V452.216H240.717C240.265 452.216 239.813 452.592 239.362 452.968C238.91 452.968 238.91 453.344 238.458 453.344L231.684 456.727L230.781 457.103L210.006 467.253L209.103 467.628L206.845 468.756C206.393 469.132 206.393 469.132 205.941 469.132C204.586 469.884 203.232 470.26 201.425 470.636C198.264 471.388 195.102 471.763 191.489 471.763C184.715 471.388 177.489 469.508 169.811 465.749C168.005 464.997 166.65 464.245 164.843 463.118C163.489 462.366 161.682 461.614 160.327 460.486C158.972 459.734 157.166 458.607 155.811 457.479C148.133 451.84 141.359 445.074 135.939 437.556C132.326 433.045 130.52 428.534 128.262 424.023C128.262 424.399 128.262 424.399 128.262 424.775C101.616 411.618 74.9697 398.837 51.0335 387.56C45.1624 384.553 39.2912 381.546 33.8717 378.914C28.4522 376.283 23.4843 373.652 18.5164 371.396L-0.000244141 380.418V395.078L131.423 457.479C131.423 457.479 255.169 516.496 311.17 543.186C405.109 588.671 505.821 637.914 595.243 681.52L595.695 680.768C593.888 679.64 592.985 678.888 590.727 678.136ZM999.449 596.565L809.766 687.91L792.604 696.18L784.475 692.421L781.313 690.917L686.923 645.433C686.923 645.808 686.923 646.184 686.472 646.56C686.02 648.064 685.569 649.567 685.117 650.695H684.665V651.071H685.117C684.214 654.454 682.859 657.086 681.052 659.341C681.052 659.717 681.052 659.717 680.601 660.093C680.601 660.469 680.149 660.845 679.697 660.845C679.697 661.597 679.697 661.972 679.246 661.972C677.891 663.1 676.536 664.604 674.73 666.107C674.278 666.483 673.826 666.483 672.923 666.859V667.235C672.923 667.235 672.923 667.235 672.471 667.235C672.02 667.611 671.117 668.363 670.213 668.739L668.858 669.115L665.245 670.994C664.794 670.994 664.794 670.994 664.794 670.994L662.536 672.122L653.955 676.257L646.277 680.392L643.567 681.144H643.116C642.664 681.52 642.212 681.52 642.212 681.895L641.761 682.647H640.858V683.023L638.599 683.775C638.148 684.151 637.696 684.903 637.245 684.151C635.89 685.279 634.083 685.655 632.277 686.03C628.664 687.534 625.051 687.534 621.438 687.534H620.986C613.308 687.158 604.727 684.903 596.147 680.768L595.695 681.52C674.278 719.862 744.28 753.694 792.604 777L1083 637.163C1058.61 625.509 1030.61 611.601 999.449 596.565ZM454.787 340.948L432.206 351.849L802.088 530.029L825.121 519.128L454.787 340.948ZM542.403 297.343V298.47L521.177 308.62L891.962 486.8L914.995 475.898L542.403 297.343ZM197.36 424.775C197.36 422.144 196.909 419.512 195.554 416.881C194.199 412.37 191.489 408.235 188.78 404.476C185.618 400.341 182.005 396.582 177.941 393.575L174.779 392.071L170.263 389.44H169.811C167.102 387.936 164.392 387.184 162.134 386.808C160.779 386.433 159.875 386.057 158.521 386.057H156.262C154.908 386.057 153.553 386.433 152.198 386.808V387.184C151.746 387.184 151.746 387.184 151.746 387.184H150.843C150.391 387.184 149.94 387.56 149.488 387.936L149.036 388.312C148.585 388.312 148.585 388.688 148.585 388.688C148.133 388.688 148.133 388.688 147.682 389.064C147.23 389.064 146.778 389.816 146.778 390.192C145.875 390.567 145.875 390.567 145.875 390.943C144.52 392.071 143.165 393.951 142.714 395.83L141.81 402.597C141.81 403.348 141.81 403.724 142.262 404.476C142.262 407.859 143.165 411.618 144.52 415.001C145.875 419.136 148.133 423.647 151.746 427.406C151.746 427.406 151.746 427.406 151.746 427.782C151.746 428.158 152.198 428.91 152.649 429.286C155.359 432.669 158.521 435.676 162.134 438.308L169.811 442.819C171.618 443.946 173.424 444.698 175.231 444.698C177.037 445.45 178.392 445.826 179.747 445.826H180.65C181.102 445.826 181.102 445.826 181.102 445.826C181.554 445.826 181.554 445.826 181.554 445.826H182.457L183.36 445.45H183.812C183.812 445.45 183.812 445.45 184.263 445.45C185.167 445.826 186.521 445.45 187.425 445.074C188.328 445.074 188.78 444.698 189.683 444.322L190.134 443.946H190.586C191.038 443.57 191.038 443.57 191.038 443.57L192.393 442.819C192.844 442.443 193.296 441.691 193.747 441.315C194.199 440.563 194.651 440.187 194.651 439.435L195.102 439.06C195.554 438.308 196.006 437.18 196.457 436.052L197.812 429.662V429.286C197.812 427.782 197.812 426.279 197.36 424.775ZM186.521 415.001L185.618 417.633C185.618 418.009 185.167 418.761 185.167 418.761V419.136C185.167 419.512 184.715 419.512 184.715 419.888C184.263 420.264 184.263 420.264 183.812 420.64L183.36 421.016H182.457V421.392C182.005 421.392 181.554 421.392 181.554 421.392C181.102 421.768 180.199 421.768 180.199 421.768C179.747 421.768 179.747 421.768 179.747 421.768H178.844C178.844 421.768 178.844 421.768 178.392 421.768H177.941C177.489 421.768 177.037 421.768 176.134 421.392C175.231 421.392 174.328 421.016 173.876 420.64L170.263 418.761C168.908 417.633 167.553 416.129 166.198 414.626C166.198 414.626 165.747 414.25 165.747 413.874C164.392 412.37 163.037 410.115 162.585 408.611C162.134 407.107 161.682 405.228 161.682 403.724C161.682 403.348 161.682 403.348 161.682 402.972V399.965C162.134 399.213 162.585 398.462 163.037 398.086C163.037 397.71 163.037 397.71 163.489 397.71C163.489 397.334 163.94 396.958 163.94 396.958C164.392 396.958 164.392 396.958 164.392 396.958C164.392 396.958 164.392 396.958 164.843 396.958V396.582L165.295 396.206H166.65C167.102 395.83 167.553 395.83 168.456 395.83H168.908C169.811 395.83 169.811 395.83 170.715 396.206C171.618 396.206 172.973 396.582 173.876 397.334H174.328L176.134 398.462L177.489 399.213C179.295 400.341 180.65 402.221 182.005 403.724C183.36 405.604 184.715 407.107 185.167 409.363C185.618 410.491 186.07 411.618 186.07 412.746C186.521 413.498 186.521 413.874 186.521 414.626V415.001ZM628.212 625.133H627.76C625.954 619.495 622.792 614.608 618.728 609.721C615.115 604.459 610.599 599.572 605.179 596.189C604.276 595.437 603.373 594.309 602.018 593.933C601.114 593.181 600.211 592.43 598.856 591.678C597.953 591.302 596.598 590.174 595.695 589.798C594.792 589.422 593.888 589.046 592.985 589.046H592.534C591.179 588.671 590.275 587.919 589.372 587.543C588.921 587.543 588.921 587.543 588.921 587.543C588.017 587.167 587.114 586.791 586.211 586.791C584.404 586.791 583.501 586.415 581.695 586.415H579.436C578.533 586.415 577.63 586.415 576.727 586.791H576.275C575.823 586.791 575.823 586.791 575.372 586.791C575.372 586.791 574.92 586.791 574.468 586.791C574.017 586.791 573.565 586.791 573.114 587.167C572.662 587.167 572.662 587.167 572.662 587.167C572.21 587.167 572.21 587.543 572.21 587.543L571.759 587.919C571.307 587.919 571.307 587.919 571.307 587.919C570.855 587.919 570.404 588.671 569.952 589.046C569.501 589.046 569.501 589.046 569.501 589.046C567.694 589.798 566.339 591.302 564.984 593.181C564.984 593.181 564.984 593.557 564.533 593.557C564.081 593.933 563.629 594.685 563.629 595.813C563.178 596.189 562.726 596.189 562.726 596.565C562.275 597.316 561.823 598.068 561.823 598.444C561.371 599.196 561.371 600.324 561.371 601.075C560.92 601.827 560.92 603.331 560.92 604.083C560.468 605.21 560.468 605.586 560.468 606.714C560.468 608.594 560.468 610.473 560.92 612.729C561.371 615.736 562.275 619.495 563.629 622.502C565.888 627.765 569.049 633.403 572.662 638.29C573.114 638.666 573.565 639.042 574.017 640.17C577.63 644.305 581.694 648.44 586.211 652.199C587.566 652.575 588.017 653.327 589.372 654.454H589.824C590.727 654.83 591.63 655.206 592.534 655.958H592.985C593.888 657.086 594.792 657.086 595.695 657.462C597.953 658.965 600.211 659.717 602.469 660.093C602.921 660.093 602.921 660.093 602.921 660.093H604.727V660.469C606.986 661.597 608.34 661.972 610.599 661.972C611.05 661.972 611.05 661.972 611.05 661.972C611.502 661.972 611.953 661.972 611.953 661.972H612.405C613.76 661.972 614.212 661.972 615.115 661.597C616.018 661.597 616.921 660.845 617.373 660.845C618.276 660.845 618.728 660.469 618.728 660.469V660.093C619.179 660.093 619.631 660.093 619.631 660.093C620.083 659.717 620.534 659.717 620.534 659.717H620.986C621.438 659.717 621.889 659.717 622.341 659.341V658.965H622.793C622.793 658.965 623.244 658.965 623.696 658.213V657.837H624.147V657.462C624.599 657.086 625.051 657.086 625.502 655.958C625.502 655.958 625.502 655.958 625.954 655.582C625.954 655.206 626.406 654.83 626.857 654.83C627.309 654.454 627.309 653.702 627.309 653.327C627.309 653.327 627.76 653.327 627.76 652.951C628.664 652.199 629.115 650.319 629.567 648.816C630.019 648.064 630.019 647.312 630.47 646.184L630.922 645.808V643.177H631.373V640.922C631.373 636.035 630.019 630.772 628.212 625.133ZM619.631 629.644H619.179V631.148C618.728 631.9 618.728 632.276 618.728 632.652C618.276 633.403 617.825 634.531 617.373 634.907C617.373 635.283 617.373 635.659 616.921 635.659L616.47 636.035C616.47 636.411 616.47 636.411 616.47 636.411C616.018 637.163 616.018 637.163 615.566 637.163V637.538C615.115 637.914 615.115 637.914 615.115 637.914H614.663V638.29C614.663 638.29 614.212 638.29 613.76 638.29C613.76 638.29 613.308 638.29 613.308 638.666H612.857C612.857 638.666 612.405 639.042 611.953 639.042C611.953 639.042 611.502 639.418 611.05 639.418C610.147 639.418 610.147 639.418 609.244 639.418H608.792C608.792 639.418 608.792 639.418 608.34 639.418C607.437 639.418 606.534 639.418 605.179 638.666H604.276C602.921 638.29 601.566 637.914 600.663 637.163C600.211 637.163 599.76 637.163 599.308 636.411H598.856C598.405 636.035 597.953 635.659 597.501 635.659H597.05C596.598 634.907 596.147 634.531 595.695 634.531C592.985 632.276 590.727 630.02 588.921 628.141C588.921 627.389 588.469 627.013 588.469 627.013C586.211 624.382 584.856 621.374 583.501 618.743C582.598 616.864 582.146 614.984 582.146 613.48C581.694 612.353 581.695 611.225 581.695 610.097C581.695 609.721 581.694 609.345 582.146 608.97V607.09C582.146 606.714 582.146 606.338 582.598 605.962C582.598 605.586 582.598 605.21 583.049 604.835C583.049 604.835 583.049 604.835 583.501 604.459C583.501 603.707 583.953 603.331 583.953 603.331C584.404 603.331 584.404 602.955 584.404 602.955C584.856 602.203 585.759 601.075 586.662 600.7C587.114 600.7 587.566 600.324 587.566 600.324C587.566 600.324 587.566 600.324 588.017 600.324V599.948C588.017 599.948 588.017 599.948 588.469 599.948C588.921 599.572 588.921 599.572 589.372 599.572H589.824C589.824 599.572 589.824 599.572 590.275 599.572H595.695C596.147 599.572 596.598 599.948 597.05 599.948C597.501 600.324 597.953 600.7 598.856 600.7H599.308C599.76 600.7 600.211 601.075 600.663 601.075C601.114 601.451 601.566 602.203 602.018 602.203C602.921 602.579 603.373 602.955 603.824 603.331C604.727 603.707 605.179 604.083 605.631 604.835C608.34 606.338 611.05 608.97 612.857 611.977C615.115 614.608 616.47 616.864 617.373 619.871H617.825C618.728 622.878 619.631 625.885 619.631 628.517V629.644Z" fill="#898989"/>
<path d="M249.749 248.85V307.492L135.036 257.496L154.908 202.99L249.749 248.85Z" fill="black"/>
<path d="M272.33 363.502V413.874L249.297 402.596L234.845 395.454L215.877 386.432C210.458 379.29 203.232 372.148 195.554 366.509C194.199 365.382 192.392 364.254 191.038 363.126C189.683 362.374 187.876 361.247 186.521 360.495C185.166 359.367 183.36 358.615 182.005 357.864C177.94 355.984 173.876 354.48 169.811 353.729C166.198 352.601 163.037 351.849 159.875 351.849C158.521 351.849 157.166 351.849 156.262 352.225C155.811 352.225 155.359 352.601 154.908 352.977C156.262 343.955 161.682 336.061 171.166 331.55C181.553 326.287 194.651 326.287 205.038 331.55L272.33 363.502ZM709.505 584.535L306.202 390.567V430.038L562.726 553.335C564.533 552.583 566.339 551.456 568.597 551.08C571.759 550.328 574.92 549.952 578.985 549.576C587.114 549.576 596.598 552.207 606.534 556.718C608.34 557.47 610.598 558.598 612.405 559.726C614.212 560.853 615.566 561.981 617.373 563.485C619.179 564.237 621.438 565.364 623.244 566.868C632.277 573.634 640.406 581.904 647.18 590.926C648.084 592.43 648.987 593.557 649.89 595.061L748.345 642.425L709.505 584.535ZM409.173 190.209V225.92L475.562 194.344V158.633L409.173 190.209ZM272.33 226.296V331.174L222.2 307.116C214.522 303.357 206.393 301.102 198.264 299.974C183.36 297.718 168.005 300.35 154.004 307.116C140.455 313.507 130.068 323.28 125.1 335.309C123.745 337.189 122.842 339.068 122.39 340.948L117.874 338.692H117.423L80.3892 321.401V247.347L112.003 149.235L272.33 226.296ZM249.749 248.85L154.908 202.99L135.036 257.496L249.749 307.492V248.85Z" fill="#08E44A"/>
<path d="M512.596 83.8273C511.692 84.5791 510.789 85.3309 509.886 85.3309L336.913 168.406C336.461 168.782 336.01 168.782 336.01 168.782L310.719 180.811L310.267 181.187L306.202 183.067V346.586L375.301 313.507V297.343L486.853 244.34L503.111 252.234L553.694 227.8V64.2802L512.596 83.8273ZM486.853 199.231L397.882 241.708V184.57L486.853 142.093V199.231ZM186.521 414.626L185.618 417.633C185.618 418.009 185.166 418.761 185.166 418.761V419.136C185.166 419.512 184.715 419.512 184.715 419.888C184.263 420.264 184.263 420.264 183.812 420.64L183.36 421.016H182.908V421.392C182.457 421.392 182.005 421.392 182.005 421.392C181.553 421.768 180.65 421.768 180.65 421.768C180.199 421.768 180.199 421.768 180.199 421.768H179.295C179.295 421.768 179.295 421.768 178.844 421.768H178.392C177.94 421.768 177.489 421.768 176.586 421.392C175.682 421.392 174.779 421.016 174.327 420.64L170.714 418.761C169.36 417.633 168.005 416.129 166.65 414.626C166.65 414.626 166.198 414.25 166.198 413.874C164.843 412.37 163.488 410.115 163.037 408.611C162.585 407.107 162.134 405.228 162.134 403.724C162.134 403.348 162.134 403.348 162.134 402.972V399.965C162.585 399.213 163.037 398.462 163.488 398.086C163.488 397.71 163.488 397.71 163.94 397.71C163.94 397.334 164.392 396.958 164.392 396.958C164.843 396.958 164.843 396.958 164.843 396.958C164.843 396.958 164.843 396.958 165.295 396.958V396.582L165.747 396.206H166.65C167.101 395.83 167.553 395.83 168.456 395.83H168.908C169.811 395.83 169.811 395.83 170.714 396.206C171.618 396.206 172.973 396.582 173.876 397.334H174.327L176.134 398.462L177.489 399.213C179.295 400.341 180.65 402.221 182.005 403.724C183.36 405.604 184.715 407.107 185.166 409.363C185.618 410.491 186.07 411.618 186.07 412.746C186.521 413.498 186.521 413.874 186.521 414.626ZM1051.39 539.051L799.378 660.469L739.764 571.379L814.282 535.668L904.156 492.438L991.771 450.337L1051.39 539.051ZM980.932 444.322L915.446 475.898L542.855 297.343V271.029L526.144 263.135L564.984 244.34L980.932 444.322ZM892.413 486.8L825.573 519.128L455.239 340.948L521.628 308.62L892.413 486.8ZM802.54 530.029L733.441 563.485L317.493 363.126L386.592 330.046L432.206 352.225L432.658 351.849L802.54 530.029ZM428.141 327.415V339.444L397.431 324.784L386.592 319.521V307.868H387.043L410.076 318.769L428.141 327.415ZM531.564 282.682V293.208L439.432 337.941V327.415L531.564 282.682ZM527.048 274.036L434.013 319.521L421.367 313.507L398.786 302.229L392.915 299.598L486.853 254.865L492.272 257.496L515.305 268.398L527.048 274.036ZM620.083 628.517V629.644H619.631V631.148C619.179 631.9 619.179 632.276 619.179 632.652C618.728 633.403 618.276 634.531 617.825 634.907C617.825 635.283 617.825 635.659 617.373 635.659L616.921 636.035C616.921 636.411 616.921 636.411 616.921 636.411C616.47 637.163 616.47 637.163 616.018 637.163V637.539C615.566 637.914 615.566 637.914 615.566 637.914H615.115V638.29C615.115 638.29 614.663 638.29 614.212 638.29C614.212 638.29 613.76 638.29 613.76 638.666H613.308C613.308 638.666 612.857 639.042 612.405 639.042C612.405 639.042 611.953 639.418 611.502 639.418C610.599 639.418 610.599 639.418 609.695 639.418H609.244C609.244 639.418 609.244 639.418 608.792 639.418C607.889 639.418 606.985 639.418 605.631 638.666H604.727C603.372 638.29 602.018 637.914 601.114 637.163C600.663 637.163 600.211 637.163 599.76 636.411H599.308C598.856 636.035 598.405 635.659 597.953 635.659H597.501C597.05 634.907 596.598 634.531 596.147 634.531C593.437 632.276 591.179 630.02 589.372 628.141C589.372 627.389 588.92 627.013 588.92 627.013C586.662 624.382 585.307 621.375 583.953 618.743C583.049 616.864 582.598 614.984 582.598 613.48C582.146 612.353 582.146 611.225 582.146 610.097C582.146 609.721 582.146 609.345 582.598 608.97V607.09C582.598 606.714 582.598 606.338 583.049 605.962C583.049 605.586 583.049 605.21 583.501 604.835C583.501 604.835 583.501 604.835 583.953 604.459C583.953 603.707 584.404 603.331 584.404 603.331C584.856 603.331 584.856 602.955 584.856 602.955C585.307 602.203 586.211 601.075 587.114 600.7C587.566 600.7 588.017 600.324 588.017 600.324C588.017 600.324 588.017 600.324 588.469 600.324V599.948C588.469 599.948 588.469 599.948 588.92 599.948C589.372 599.572 589.372 599.572 589.824 599.572H590.275C590.275 599.572 590.275 599.572 590.727 599.572H596.147C596.598 599.572 597.05 599.948 597.501 599.948C597.953 600.324 598.405 600.7 599.308 600.7H599.76C600.211 600.7 600.663 601.075 601.114 601.075C601.566 601.451 602.018 602.203 602.469 602.203C603.372 602.579 603.824 602.955 604.276 603.331C605.179 603.707 605.631 604.083 606.082 604.835C608.792 606.338 611.502 608.97 613.308 611.977C615.566 614.608 616.921 616.864 617.825 619.871H618.276C619.179 622.878 620.083 625.885 620.083 628.517ZM122.39 373.652C121.487 375.155 121.036 376.659 120.132 378.538C119.681 379.666 119.229 381.17 118.777 382.673C118.777 383.801 118.326 385.305 118.326 386.808C88.97 372.524 59.6143 358.24 34.3232 346.21V321.025L46.5172 315.01V337.189L80.3891 353.353L122.39 373.652Z" fill="#BBBBBB"/>
<path d="M397.883 184.57V241.708L486.853 199.231V142.093L397.883 184.57ZM475.111 193.968L409.173 225.544V189.833L457.046 167.279L475.562 158.257L475.111 193.968ZM402.85 294.711H403.754L486.401 254.865L402.85 294.711ZM397.883 184.57V241.708L486.853 199.231V142.093L397.883 184.57ZM475.111 193.968L409.173 225.544V189.833L457.046 167.279L475.562 158.257L475.111 193.968ZM402.85 294.711H403.754L486.401 254.865L402.85 294.711ZM397.883 184.57V241.708L486.853 199.231V142.093L397.883 184.57ZM475.111 193.968L409.173 225.544V189.833L457.046 167.279L475.562 158.257L475.111 193.968ZM397.883 184.57V241.708L486.853 199.231V142.093L397.883 184.57ZM475.111 193.968L409.173 225.544V189.833L457.046 167.279L475.562 158.257L475.111 193.968ZM403.754 294.711L486.401 254.865L402.85 294.711H403.754ZM486.401 142.093L397.883 184.57V241.708L486.853 199.231V142.093H486.401ZM475.111 193.968L409.173 225.544V189.833L457.046 167.279L475.562 158.257L475.111 193.968ZM1016.16 428.91L704.537 278.923L587.566 222.537V54.8824C574.92 48.492 562.275 41.7257 549.629 34.2075H548.726L501.757 56.762L494.079 53.0029L482.337 46.9884L478.272 45.4848L474.207 43.2293L458.852 50.7475L353.172 0L83.099 129.312L81.7441 134.575L57.3563 202.99L46.0656 234.566V282.306L-0.000244141 304.861V362.75L8.58066 366.509C11.742 368.013 15.3551 369.517 18.5164 371.396C23.4843 373.652 28.4522 376.283 33.8717 378.914C39.2912 381.546 45.1624 384.553 51.0335 387.56C74.9697 398.837 101.616 411.618 128.262 424.775C128.262 424.399 128.262 424.399 128.262 424.023C130.52 428.534 132.326 433.045 135.939 437.556C141.359 445.074 148.133 451.84 155.811 457.479C157.166 458.607 158.972 459.734 160.327 460.486C161.682 461.614 163.489 462.366 164.843 463.118C166.65 464.245 168.005 464.997 169.811 465.749C177.489 469.508 184.715 471.388 191.489 471.763C195.102 471.763 198.264 471.388 201.425 470.636C203.232 470.26 204.586 469.884 205.941 469.132C206.393 469.132 206.393 469.132 206.845 468.756L209.103 467.628L210.006 467.253L230.781 457.103L231.684 456.727L238.458 453.344C238.91 453.344 238.91 452.968 239.362 452.968C239.813 452.592 240.265 452.216 240.717 452.216H241.168V451.84C241.62 451.464 242.071 451.464 242.523 451.089C242.523 451.089 242.523 450.713 242.975 450.713C244.33 449.585 245.233 448.457 246.588 447.329C247.039 446.578 247.491 445.826 247.943 445.074C249.749 442.819 250.652 440.563 251.556 437.932C251.556 437.556 252.007 436.804 252.007 436.428L541.5 575.89C540.596 577.769 539.693 579.273 538.79 581.528C538.338 582.656 537.887 584.536 537.435 585.663C536.983 587.167 536.983 589.046 536.983 590.926C536.532 592.054 536.532 593.933 536.532 595.813C536.532 603.707 538.338 612.729 541.951 622.126C545.564 631.148 550.532 640.17 556.855 648.064C563.178 657.086 571.307 664.604 579.888 671.37C581.695 672.498 583.501 673.626 585.308 674.377C587.114 675.881 588.921 676.633 590.275 678.136C590.727 678.136 590.727 678.136 590.727 678.136C592.534 678.888 593.888 679.64 595.695 680.768C604.276 684.903 612.857 687.158 620.534 687.534H620.986C624.599 687.534 628.212 687.534 631.825 686.03C633.632 685.655 635.438 685.279 636.793 684.151C637.245 684.903 637.696 684.151 638.148 683.775L640.406 683.023H640.858V682.647H641.309L641.761 681.895C641.761 681.52 642.212 681.52 642.664 681.144H643.116L645.825 680.392L653.503 676.257L662.084 672.122L664.342 670.994C664.342 670.994 664.342 670.994 664.794 670.994L668.407 669.115L669.762 668.739C670.665 668.363 671.568 667.611 672.02 667.235C672.471 667.235 672.471 667.235 672.471 667.235V666.859C673.375 666.483 673.826 666.483 674.278 666.107C676.084 664.604 677.439 663.1 678.794 661.972C679.246 661.972 679.246 661.596 679.246 660.845C679.697 660.845 680.149 660.469 680.149 660.093C680.601 659.717 680.601 659.717 680.601 659.341C682.407 657.086 683.762 654.454 684.665 651.071H684.214V650.695H684.665C685.117 649.567 685.569 648.064 686.02 646.56C686.472 646.184 686.472 645.808 686.472 645.432L780.862 690.917L784.023 692.421L792.152 696.18L809.314 687.91L1013 589.798L1082.55 556.342V528.149L1016.16 428.91ZM509.434 85.3309C510.338 85.3309 511.241 84.5791 512.144 83.8273L553.242 64.2801V227.8L502.66 252.234L486.401 244.34L391.56 289.448L374.85 297.343V313.507L305.751 346.586V183.067L309.815 181.187L310.267 180.811L335.558 168.782C335.558 168.782 336.01 168.782 336.461 168.406L509.434 85.3309ZM444.4 314.258L433.561 319.521L420.916 313.507L398.334 302.229L392.463 299.598L402.85 294.711H403.754L486.401 254.865L491.821 257.496L514.854 268.398L526.596 274.036L444.4 314.258ZM531.112 282.682V293.208L466.078 324.784L438.981 337.94V327.415L455.239 319.521L531.112 282.682ZM427.69 327.415V339.444L396.979 324.784L386.14 319.521V307.868H386.592L409.625 318.769L427.69 327.415ZM339.623 127.057L393.818 101.119L401.044 104.502L347.3 130.44L339.623 127.057ZM468.788 65.0319L476.466 68.791L452.529 80.0682L415.044 98.1118L407.367 94.7286L444.4 76.685L468.788 65.0319ZM119.681 378.538C119.229 379.666 118.777 381.17 118.326 382.673C118.326 383.801 117.874 385.305 117.874 386.808C114.713 385.305 111.551 383.801 108.39 382.298C105.68 381.17 103.422 379.666 100.712 378.538C99.3576 377.787 97.5511 377.035 95.7445 376.283C93.938 375.155 91.6799 374.028 89.8734 373.276C70.0018 363.502 51.0335 354.48 33.8717 346.21V321.025L46.0656 315.01V337.189L79.9376 353.353L83.5506 354.856L84.9055 355.608L86.2604 356.36L98.0027 361.999L99.3576 362.75L104.325 365.006L104.777 365.382L121.939 373.652C121.487 375.155 120.584 376.659 119.681 378.538ZM197.812 429.662L196.457 436.052C196.006 437.18 195.554 438.308 195.102 439.06L194.651 439.435C194.651 440.187 194.199 440.563 193.747 441.315C193.296 441.691 192.844 442.443 192.393 442.819L191.038 443.57C191.038 443.57 191.038 443.57 190.586 443.946H190.134L189.683 444.322C188.78 444.698 188.328 445.074 187.425 445.074C186.521 445.45 185.167 445.826 184.263 445.45C183.812 445.45 183.812 445.45 183.812 445.45L182.908 445.826H181.554C181.554 445.826 181.554 445.826 181.102 445.826C181.102 445.826 181.102 445.826 180.65 445.826H179.747C178.392 445.826 177.037 445.45 175.231 444.698C173.424 444.698 171.618 443.946 169.811 442.819L162.134 438.308C158.521 435.676 155.359 432.669 152.649 429.286C152.198 428.91 151.746 428.158 151.746 427.782C151.746 427.406 151.746 427.406 151.746 427.406C148.133 423.647 145.875 419.136 144.52 415.001C143.165 411.618 142.262 407.859 142.262 404.476C141.81 403.724 141.81 403.348 141.81 402.597L142.714 395.83C143.165 393.951 144.52 392.071 145.875 390.943C145.875 390.567 145.875 390.567 146.778 390.192C146.778 389.816 147.23 389.064 147.682 389.064C148.133 388.688 148.133 388.688 148.585 388.688C148.585 388.688 148.585 388.312 149.036 388.312L149.488 387.936C149.94 387.56 150.391 387.184 150.843 387.184H151.295C151.295 387.184 151.295 387.184 151.746 387.184V386.808H152.198C153.553 386.432 154.908 386.057 156.262 386.057H158.069C159.424 386.057 160.327 386.432 161.682 386.808C163.94 387.184 166.65 387.936 169.36 389.44H169.811L174.328 392.071L177.489 393.575C181.554 396.582 185.167 400.341 188.328 404.476C191.038 408.235 193.747 412.37 195.102 416.881C196.457 419.512 196.909 422.144 196.909 424.775C197.812 426.279 197.812 427.782 197.812 429.662ZM271.879 413.874L248.846 402.597L234.394 395.454L215.426 386.432C210.006 379.29 202.78 372.148 195.102 366.509C193.747 365.382 191.941 364.254 190.586 363.126C189.231 362.374 187.425 361.247 186.07 360.495C184.715 359.367 182.908 358.615 181.554 357.864C177.489 355.984 173.424 354.48 169.36 353.729C165.747 352.601 162.585 351.849 159.424 351.849C158.069 351.849 156.714 351.849 155.811 352.225C155.359 352.225 154.908 352.601 154.456 352.977C155.811 343.955 161.23 336.061 170.715 331.55C181.102 326.287 194.199 326.287 204.586 331.55L271.879 363.502V413.874ZM271.879 331.174L221.748 307.116C214.071 303.357 205.941 301.102 197.812 299.974C182.908 297.718 167.553 300.35 153.553 307.116C140.004 313.507 129.617 323.28 124.649 335.309C123.294 337.189 122.391 339.068 121.939 340.948L117.423 338.692H116.971L79.9376 321.401V247.347L111.551 149.235L112.003 148.107L352.72 32.328L424.98 66.9115L233.491 159.761V205.997H234.394L271.879 224.417V331.174ZM271.879 199.983L252.459 190.961V183.067L254.265 183.819L257.427 185.698L271.879 192.464V199.983ZM271.879 168.03L263.75 163.895L326.526 133.071H326.977L334.203 136.83L271.879 166.527V168.03ZM631.373 643.177H630.922V645.808L630.47 646.184C630.019 647.312 630.019 648.064 629.567 648.816C629.115 650.319 628.664 652.199 627.76 652.951C627.76 653.327 627.309 653.327 627.309 653.327C627.309 653.702 627.309 654.454 626.857 654.83C626.406 654.83 625.954 655.206 625.954 655.582C625.502 655.958 625.502 655.958 625.502 655.958C625.051 657.086 624.599 657.086 624.147 657.462V657.837H623.696V658.213C623.244 658.965 622.793 658.965 622.793 658.965H622.341V659.341C621.889 659.717 621.438 659.717 620.986 659.717H620.534C620.534 659.717 620.083 659.717 619.631 660.093C619.631 660.093 619.179 660.093 618.728 660.093V660.469C618.728 660.469 618.276 660.845 617.373 660.845C616.921 660.845 616.018 661.597 615.115 661.597C614.212 661.972 613.76 661.972 612.405 661.972H611.953C611.953 661.972 611.502 661.972 611.05 661.972C611.05 661.972 611.05 661.972 610.599 661.972C608.34 661.972 606.986 661.596 604.727 660.469V660.093H602.921C602.921 660.093 602.921 660.093 602.469 660.093C600.211 659.717 597.953 658.965 595.695 657.462C594.792 657.086 593.888 657.086 592.985 655.958H592.534C591.63 655.206 590.727 654.83 589.824 654.454H589.372C588.017 653.327 587.566 652.575 586.211 652.199C581.694 648.44 577.63 644.305 574.017 640.17C573.565 639.042 573.114 638.666 572.662 638.29C569.049 633.403 565.888 627.765 563.629 622.502C562.275 619.495 561.371 615.736 560.92 612.729C560.468 610.473 560.468 608.594 560.468 606.714C560.468 605.586 560.468 605.21 560.92 604.083C560.92 603.331 560.92 601.827 561.371 601.075C561.371 600.324 561.371 599.196 561.823 598.444C561.823 598.068 562.275 597.316 562.726 596.565C562.726 596.189 563.178 596.189 563.629 595.813C563.629 594.685 564.081 593.933 564.533 593.557C564.984 593.557 564.984 593.181 564.984 593.181C566.339 591.302 567.694 589.798 569.501 589.046C569.501 589.046 569.501 589.046 569.952 589.046C570.404 588.671 570.855 587.919 571.307 587.919C571.307 587.919 571.307 587.919 571.759 587.919L572.21 587.543C572.21 587.543 572.21 587.167 572.662 587.167C572.662 587.167 572.662 587.167 573.114 587.167C573.565 586.791 574.017 586.791 574.468 586.791C574.92 586.791 575.372 586.791 575.372 586.791C575.823 586.791 575.823 586.791 576.275 586.791H576.727C577.63 586.415 578.533 586.415 579.436 586.415H581.695C583.501 586.415 584.404 586.791 586.211 586.791C587.114 586.791 588.017 587.167 588.921 587.543C588.921 587.543 588.921 587.543 589.372 587.543C590.275 587.919 591.179 588.671 592.534 589.046H592.985C593.888 589.046 594.792 589.422 595.695 589.798C596.598 590.174 597.953 591.302 598.856 591.678C600.211 592.43 601.114 593.181 602.018 593.933C603.373 594.309 604.276 595.437 605.179 596.189C610.599 599.572 615.115 604.459 618.728 609.721C622.792 614.608 625.954 619.495 627.76 625.133H628.212C630.019 630.772 631.373 636.035 631.373 640.922C631.373 640.922 631.373 643.177 631.373 643.177ZM649.438 595.061C648.535 593.557 647.632 592.43 646.729 590.926C639.954 581.904 631.825 573.634 622.793 566.868C620.986 565.364 618.728 564.237 616.921 563.485C615.115 561.981 613.76 560.853 611.953 559.726C610.147 558.598 607.889 557.47 606.082 556.718C596.147 552.208 586.662 549.576 578.533 549.576C574.468 549.952 571.307 550.328 568.146 551.08C565.888 551.456 564.081 552.583 562.275 553.335L305.751 430.038V390.567L709.053 584.536L747.893 642.425L649.438 595.061ZM884.284 648.816L858.993 660.845V636.035L884.284 624.382V648.816ZM1026.55 580.025L1001.71 592.054V567.244L1026.55 555.591V580.025ZM979.577 573.634L798.927 660.469L739.312 571.379L734.344 564.237L732.989 563.485L317.041 363.126L386.14 330.046L431.755 352.225L432.206 351.849L454.787 340.948L477.369 329.671L521.177 308.62L542.403 298.47V271.029L525.693 263.135L564.533 244.34L980.481 444.322L990.416 449.209L991.32 450.337L1050.93 539.051L979.577 573.634ZM397.883 184.57V241.708L486.853 199.231V142.093L397.883 184.57ZM475.111 193.968L409.173 225.544V189.833L457.046 167.279L475.562 158.257L475.111 193.968ZM402.85 294.711H403.754L486.401 254.865L402.85 294.711ZM397.883 184.57V241.708L486.853 199.231V142.093L397.883 184.57ZM475.111 193.968L409.173 225.544V189.833L457.046 167.279L475.562 158.257L475.111 193.968ZM402.85 294.711H403.754L486.401 254.865L402.85 294.711ZM402.85 294.711H403.754L486.401 254.865L402.85 294.711ZM402.85 294.711H403.754L486.401 254.865L402.85 294.711Z" fill="black"/>
<path d="M884.284 624.382V648.816L858.993 660.845V636.035L884.284 624.382ZM1002.16 567.244V592.054L1027 580.025V555.591L1002.16 567.244Z" fill="#BE1E2D"/>
</g>
<defs>
<clipPath id="clip0_4574_1352">
<rect width="1083" height="777" fill="white" transform="translate(-0.000244141)"/>
</clipPath>
</defs>
</svg>
